<mxfile host="app.diagrams.net" modified="2022-10-06T01:34:11.277Z" agent="5.0 (Macintosh; Intel Mac OS X 10_15_7) AppleWebKit/537.36 (KHTML, like Gecko) Chrome/105.0.0.0 Safari/537.36" etag="ZAsweO5eb2Pe8hoZgtNt" version="20.4.0" type="github">
  <diagram id="R2lEEEUBdFMjLlhIrx00" name="Page-1">
    <mxGraphModel dx="827" dy="558" grid="1" gridSize="10" guides="1" tooltips="1" connect="1" arrows="1" fold="1" page="1" pageScale="1" pageWidth="850" pageHeight="1100" math="0" shadow="0" extFonts="Permanent Marker^https://fonts.googleapis.com/css?family=Permanent+Marker">
      <root>
        <mxCell id="0" />
        <mxCell id="1" parent="0" />
        <mxCell id="0IoHp8gq_NUmtfsQO4E6-48" value="" style="edgeStyle=orthogonalEdgeStyle;rounded=0;orthogonalLoop=1;jettySize=auto;html=1;" edge="1" parent="1" source="0IoHp8gq_NUmtfsQO4E6-1" target="0IoHp8gq_NUmtfsQO4E6-47">
          <mxGeometry relative="1" as="geometry" />
        </mxCell>
        <mxCell id="0IoHp8gq_NUmtfsQO4E6-50" value="" style="edgeStyle=orthogonalEdgeStyle;rounded=0;orthogonalLoop=1;jettySize=auto;html=1;" edge="1" parent="1" source="0IoHp8gq_NUmtfsQO4E6-1" target="0IoHp8gq_NUmtfsQO4E6-49">
          <mxGeometry relative="1" as="geometry" />
        </mxCell>
        <mxCell id="0IoHp8gq_NUmtfsQO4E6-52" value="" style="edgeStyle=orthogonalEdgeStyle;rounded=0;orthogonalLoop=1;jettySize=auto;html=1;" edge="1" parent="1" source="0IoHp8gq_NUmtfsQO4E6-1" target="0IoHp8gq_NUmtfsQO4E6-51">
          <mxGeometry relative="1" as="geometry">
            <Array as="points">
              <mxPoint x="248" y="590" />
              <mxPoint x="140" y="590" />
            </Array>
          </mxGeometry>
        </mxCell>
        <mxCell id="0IoHp8gq_NUmtfsQO4E6-57" value="" style="edgeStyle=orthogonalEdgeStyle;rounded=0;orthogonalLoop=1;jettySize=auto;html=1;" edge="1" parent="1" source="0IoHp8gq_NUmtfsQO4E6-1" target="0IoHp8gq_NUmtfsQO4E6-56">
          <mxGeometry relative="1" as="geometry" />
        </mxCell>
        <mxCell id="0IoHp8gq_NUmtfsQO4E6-35" value="" style="edgeStyle=orthogonalEdgeStyle;rounded=0;orthogonalLoop=1;jettySize=auto;html=1;" edge="1" parent="1" source="0IoHp8gq_NUmtfsQO4E6-2" target="0IoHp8gq_NUmtfsQO4E6-34">
          <mxGeometry relative="1" as="geometry" />
        </mxCell>
        <mxCell id="0IoHp8gq_NUmtfsQO4E6-37" value="" style="edgeStyle=orthogonalEdgeStyle;rounded=0;orthogonalLoop=1;jettySize=auto;html=1;" edge="1" parent="1" source="0IoHp8gq_NUmtfsQO4E6-2" target="0IoHp8gq_NUmtfsQO4E6-36">
          <mxGeometry relative="1" as="geometry" />
        </mxCell>
        <mxCell id="0IoHp8gq_NUmtfsQO4E6-40" value="" style="edgeStyle=orthogonalEdgeStyle;rounded=0;orthogonalLoop=1;jettySize=auto;html=1;" edge="1" parent="1" source="0IoHp8gq_NUmtfsQO4E6-2" target="0IoHp8gq_NUmtfsQO4E6-39">
          <mxGeometry relative="1" as="geometry" />
        </mxCell>
        <mxCell id="0IoHp8gq_NUmtfsQO4E6-2" value="Clientes" style="rounded=0;whiteSpace=wrap;html=1;fillColor=#3399FF;rotation=0;" vertex="1" parent="1">
          <mxGeometry x="410" y="610" width="120" height="60" as="geometry" />
        </mxCell>
        <mxCell id="0IoHp8gq_NUmtfsQO4E6-13" style="edgeStyle=orthogonalEdgeStyle;rounded=0;orthogonalLoop=1;jettySize=auto;html=1;entryX=0.5;entryY=1;entryDx=0;entryDy=0;" edge="1" parent="1" source="0IoHp8gq_NUmtfsQO4E6-3">
          <mxGeometry relative="1" as="geometry">
            <mxPoint x="510" y="220" as="targetPoint" />
          </mxGeometry>
        </mxCell>
        <mxCell id="0IoHp8gq_NUmtfsQO4E6-14" value="" style="edgeStyle=orthogonalEdgeStyle;rounded=0;orthogonalLoop=1;jettySize=auto;html=1;" edge="1" parent="1" source="0IoHp8gq_NUmtfsQO4E6-3" target="0IoHp8gq_NUmtfsQO4E6-12">
          <mxGeometry relative="1" as="geometry" />
        </mxCell>
        <mxCell id="0IoHp8gq_NUmtfsQO4E6-15" style="edgeStyle=orthogonalEdgeStyle;rounded=0;orthogonalLoop=1;jettySize=auto;html=1;entryX=0.5;entryY=1;entryDx=0;entryDy=0;" edge="1" parent="1" source="0IoHp8gq_NUmtfsQO4E6-3">
          <mxGeometry relative="1" as="geometry">
            <mxPoint x="740" y="230" as="targetPoint" />
          </mxGeometry>
        </mxCell>
        <mxCell id="0IoHp8gq_NUmtfsQO4E6-16" style="edgeStyle=orthogonalEdgeStyle;rounded=0;orthogonalLoop=1;jettySize=auto;html=1;entryX=0.5;entryY=1;entryDx=0;entryDy=0;" edge="1" parent="1" source="0IoHp8gq_NUmtfsQO4E6-3" target="0IoHp8gq_NUmtfsQO4E6-7">
          <mxGeometry relative="1" as="geometry">
            <Array as="points">
              <mxPoint x="680" y="240" />
              <mxPoint x="680" y="240" />
            </Array>
          </mxGeometry>
        </mxCell>
        <mxCell id="0IoHp8gq_NUmtfsQO4E6-3" value="Provedores" style="rounded=0;whiteSpace=wrap;html=1;fillColor=#0000FF;" vertex="1" parent="1">
          <mxGeometry x="560" y="245" width="120" height="40" as="geometry" />
        </mxCell>
        <mxCell id="0IoHp8gq_NUmtfsQO4E6-65" value="" style="edgeStyle=orthogonalEdgeStyle;rounded=0;orthogonalLoop=1;jettySize=auto;html=1;" edge="1" parent="1" source="0IoHp8gq_NUmtfsQO4E6-4" target="0IoHp8gq_NUmtfsQO4E6-64">
          <mxGeometry relative="1" as="geometry" />
        </mxCell>
        <mxCell id="0IoHp8gq_NUmtfsQO4E6-67" value="" style="edgeStyle=orthogonalEdgeStyle;rounded=0;orthogonalLoop=1;jettySize=auto;html=1;entryX=0;entryY=0.5;entryDx=0;entryDy=0;" edge="1" parent="1" source="0IoHp8gq_NUmtfsQO4E6-4" target="0IoHp8gq_NUmtfsQO4E6-66">
          <mxGeometry relative="1" as="geometry">
            <Array as="points">
              <mxPoint x="690" y="493" />
              <mxPoint x="760" y="493" />
            </Array>
          </mxGeometry>
        </mxCell>
        <mxCell id="0IoHp8gq_NUmtfsQO4E6-70" value="" style="edgeStyle=orthogonalEdgeStyle;rounded=0;orthogonalLoop=1;jettySize=auto;html=1;entryX=0;entryY=0.5;entryDx=0;entryDy=0;" edge="1" parent="1" source="0IoHp8gq_NUmtfsQO4E6-4" target="0IoHp8gq_NUmtfsQO4E6-69">
          <mxGeometry relative="1" as="geometry">
            <Array as="points">
              <mxPoint x="690" y="330" />
            </Array>
          </mxGeometry>
        </mxCell>
        <mxCell id="0IoHp8gq_NUmtfsQO4E6-4" value="categorias" style="rounded=0;whiteSpace=wrap;html=1;fillColor=#007FFF;" vertex="1" parent="1">
          <mxGeometry x="630" y="385" width="120" height="60" as="geometry" />
        </mxCell>
        <mxCell id="0IoHp8gq_NUmtfsQO4E6-19" value="" style="edgeStyle=orthogonalEdgeStyle;rounded=0;orthogonalLoop=1;jettySize=auto;html=1;entryX=0.349;entryY=1.002;entryDx=0;entryDy=0;entryPerimeter=0;" edge="1" parent="1" source="0IoHp8gq_NUmtfsQO4E6-5" target="0IoHp8gq_NUmtfsQO4E6-18">
          <mxGeometry relative="1" as="geometry">
            <mxPoint x="130" y="120" as="targetPoint" />
            <Array as="points">
              <mxPoint x="114" y="165" />
            </Array>
          </mxGeometry>
        </mxCell>
        <mxCell id="0IoHp8gq_NUmtfsQO4E6-21" value="" style="edgeStyle=orthogonalEdgeStyle;rounded=0;orthogonalLoop=1;jettySize=auto;html=1;" edge="1" parent="1" source="0IoHp8gq_NUmtfsQO4E6-5" target="0IoHp8gq_NUmtfsQO4E6-20">
          <mxGeometry relative="1" as="geometry" />
        </mxCell>
        <mxCell id="0IoHp8gq_NUmtfsQO4E6-23" value="" style="edgeStyle=orthogonalEdgeStyle;rounded=0;orthogonalLoop=1;jettySize=auto;html=1;" edge="1" parent="1" source="0IoHp8gq_NUmtfsQO4E6-5" target="0IoHp8gq_NUmtfsQO4E6-22">
          <mxGeometry relative="1" as="geometry" />
        </mxCell>
        <mxCell id="0IoHp8gq_NUmtfsQO4E6-24" style="edgeStyle=orthogonalEdgeStyle;rounded=0;orthogonalLoop=1;jettySize=auto;html=1;exitX=0.5;exitY=0;exitDx=0;exitDy=0;" edge="1" parent="1" source="0IoHp8gq_NUmtfsQO4E6-5" target="0IoHp8gq_NUmtfsQO4E6-20">
          <mxGeometry relative="1" as="geometry" />
        </mxCell>
        <mxCell id="0IoHp8gq_NUmtfsQO4E6-25" value="" style="edgeStyle=orthogonalEdgeStyle;rounded=0;orthogonalLoop=1;jettySize=auto;html=1;" edge="1" parent="1" source="0IoHp8gq_NUmtfsQO4E6-5" target="0IoHp8gq_NUmtfsQO4E6-22">
          <mxGeometry relative="1" as="geometry" />
        </mxCell>
        <mxCell id="0IoHp8gq_NUmtfsQO4E6-27" value="" style="edgeStyle=orthogonalEdgeStyle;rounded=0;orthogonalLoop=1;jettySize=auto;html=1;" edge="1" parent="1" source="0IoHp8gq_NUmtfsQO4E6-5" target="0IoHp8gq_NUmtfsQO4E6-26">
          <mxGeometry relative="1" as="geometry" />
        </mxCell>
        <mxCell id="0IoHp8gq_NUmtfsQO4E6-5" value="Producto" style="rounded=0;whiteSpace=wrap;html=1;fillColor=#0000FF;" vertex="1" parent="1">
          <mxGeometry x="215" y="140" width="90" height="60" as="geometry" />
        </mxCell>
        <mxCell id="0IoHp8gq_NUmtfsQO4E6-6" value="NIP" style="ellipse;whiteSpace=wrap;html=1;labelBackgroundColor=#0000FF;strokeColor=#0000FF;fillColor=#0000FF;" vertex="1" parent="1">
          <mxGeometry x="470" y="180" width="80" height="40" as="geometry" />
        </mxCell>
        <mxCell id="0IoHp8gq_NUmtfsQO4E6-7" value="Telefono" style="ellipse;whiteSpace=wrap;html=1;labelBackgroundColor=#0000FF;strokeColor=#0000FF;fillColor=#0000FF;" vertex="1" parent="1">
          <mxGeometry x="640" y="120" width="80" height="40" as="geometry" />
        </mxCell>
        <mxCell id="0IoHp8gq_NUmtfsQO4E6-9" value="adrees" style="ellipse;whiteSpace=wrap;html=1;labelBackgroundColor=#0000FF;strokeColor=#0000FF;fillColor=#0000FF;" vertex="1" parent="1">
          <mxGeometry x="700" y="190" width="80" height="40" as="geometry" />
        </mxCell>
        <mxCell id="0IoHp8gq_NUmtfsQO4E6-11" value="Nombre" style="ellipse;whiteSpace=wrap;html=1;labelBackgroundColor=#0000FF;strokeColor=#0000FF;fillColor=#0000FF;" vertex="1" parent="1">
          <mxGeometry x="520" y="120" width="80" height="40" as="geometry" />
        </mxCell>
        <mxCell id="0IoHp8gq_NUmtfsQO4E6-12" value="WEB" style="ellipse;whiteSpace=wrap;html=1;labelBackgroundColor=#0000FF;strokeColor=#0000FF;fillColor=#0000FF;" vertex="1" parent="1">
          <mxGeometry x="580" y="190" width="80" height="40" as="geometry" />
        </mxCell>
        <mxCell id="0IoHp8gq_NUmtfsQO4E6-17" value="" style="endArrow=classic;html=1;rounded=0;exitX=0;exitY=0;exitDx=0;exitDy=0;" edge="1" parent="1" source="0IoHp8gq_NUmtfsQO4E6-3">
          <mxGeometry width="50" height="50" relative="1" as="geometry">
            <mxPoint x="510" y="210" as="sourcePoint" />
            <mxPoint x="560" y="160" as="targetPoint" />
            <Array as="points" />
          </mxGeometry>
        </mxCell>
        <mxCell id="0IoHp8gq_NUmtfsQO4E6-18" value="idProductos" style="ellipse;whiteSpace=wrap;html=1;fillColor=#0000FF;rounded=0;" vertex="1" parent="1">
          <mxGeometry x="80" y="100" width="80" height="30" as="geometry" />
        </mxCell>
        <mxCell id="0IoHp8gq_NUmtfsQO4E6-20" value="Precio&lt;br&gt;" style="ellipse;whiteSpace=wrap;html=1;fillColor=#0000FF;rounded=0;" vertex="1" parent="1">
          <mxGeometry x="210" y="90" width="75" height="30" as="geometry" />
        </mxCell>
        <mxCell id="0IoHp8gq_NUmtfsQO4E6-22" value="Nombre" style="ellipse;whiteSpace=wrap;html=1;fillColor=#0000FF;rounded=0;" vertex="1" parent="1">
          <mxGeometry x="340" y="100" width="70" height="30" as="geometry" />
        </mxCell>
        <mxCell id="0IoHp8gq_NUmtfsQO4E6-26" value="Stock" style="ellipse;whiteSpace=wrap;html=1;fillColor=#0000FF;rounded=0;" vertex="1" parent="1">
          <mxGeometry x="57.5" y="185" width="82.5" height="20" as="geometry" />
        </mxCell>
        <mxCell id="0IoHp8gq_NUmtfsQO4E6-30" style="edgeStyle=orthogonalEdgeStyle;rounded=0;orthogonalLoop=1;jettySize=auto;html=1;entryX=0;entryY=0.75;entryDx=0;entryDy=0;" edge="1" parent="1" source="0IoHp8gq_NUmtfsQO4E6-29" target="0IoHp8gq_NUmtfsQO4E6-3">
          <mxGeometry relative="1" as="geometry">
            <Array as="points">
              <mxPoint x="560" y="310" />
            </Array>
          </mxGeometry>
        </mxCell>
        <mxCell id="0IoHp8gq_NUmtfsQO4E6-31" style="edgeStyle=orthogonalEdgeStyle;rounded=0;orthogonalLoop=1;jettySize=auto;html=1;entryX=0.5;entryY=1;entryDx=0;entryDy=0;" edge="1" parent="1" source="0IoHp8gq_NUmtfsQO4E6-29" target="0IoHp8gq_NUmtfsQO4E6-5">
          <mxGeometry relative="1" as="geometry">
            <Array as="points">
              <mxPoint x="260" y="305" />
            </Array>
          </mxGeometry>
        </mxCell>
        <mxCell id="0IoHp8gq_NUmtfsQO4E6-29" value="tiene" style="rhombus;whiteSpace=wrap;html=1;labelBackgroundColor=#0000FF;strokeColor=#0000FF;fillColor=#0000FF;" vertex="1" parent="1">
          <mxGeometry x="360" y="265" width="80" height="50" as="geometry" />
        </mxCell>
        <mxCell id="0IoHp8gq_NUmtfsQO4E6-32" value="1:1" style="text;html=1;align=center;verticalAlign=middle;resizable=0;points=[];autosize=1;strokeColor=none;fillColor=none;" vertex="1" parent="1">
          <mxGeometry x="260" y="285" width="40" height="30" as="geometry" />
        </mxCell>
        <mxCell id="0IoHp8gq_NUmtfsQO4E6-33" value="1:N" style="text;html=1;align=center;verticalAlign=middle;resizable=0;points=[];autosize=1;strokeColor=none;fillColor=none;" vertex="1" parent="1">
          <mxGeometry x="460" y="290" width="40" height="30" as="geometry" />
        </mxCell>
        <mxCell id="0IoHp8gq_NUmtfsQO4E6-34" value="Id cliente&lt;br&gt;" style="ellipse;whiteSpace=wrap;html=1;fillColor=#007FFF;rounded=0;" vertex="1" parent="1">
          <mxGeometry x="570" y="690" width="120" height="60" as="geometry" />
        </mxCell>
        <mxCell id="0IoHp8gq_NUmtfsQO4E6-36" value="Nombre&amp;nbsp;" style="ellipse;whiteSpace=wrap;html=1;fillColor=#007FFF;rounded=0;" vertex="1" parent="1">
          <mxGeometry x="230" y="650" width="120" height="60" as="geometry" />
        </mxCell>
        <mxCell id="0IoHp8gq_NUmtfsQO4E6-42" value="" style="edgeStyle=orthogonalEdgeStyle;rounded=0;orthogonalLoop=1;jettySize=auto;html=1;" edge="1" parent="1" source="0IoHp8gq_NUmtfsQO4E6-39">
          <mxGeometry relative="1" as="geometry">
            <mxPoint x="670" y="840" as="targetPoint" />
          </mxGeometry>
        </mxCell>
        <mxCell id="0IoHp8gq_NUmtfsQO4E6-44" value="" style="edgeStyle=orthogonalEdgeStyle;rounded=0;orthogonalLoop=1;jettySize=auto;html=1;" edge="1" parent="1" source="0IoHp8gq_NUmtfsQO4E6-39" target="0IoHp8gq_NUmtfsQO4E6-43">
          <mxGeometry relative="1" as="geometry" />
        </mxCell>
        <mxCell id="0IoHp8gq_NUmtfsQO4E6-46" value="" style="edgeStyle=orthogonalEdgeStyle;rounded=0;orthogonalLoop=1;jettySize=auto;html=1;" edge="1" parent="1" source="0IoHp8gq_NUmtfsQO4E6-39" target="0IoHp8gq_NUmtfsQO4E6-45">
          <mxGeometry relative="1" as="geometry" />
        </mxCell>
        <mxCell id="0IoHp8gq_NUmtfsQO4E6-39" value="Cuidad&amp;nbsp;&lt;br&gt;" style="ellipse;whiteSpace=wrap;html=1;fillColor=#3399FF;rounded=0;" vertex="1" parent="1">
          <mxGeometry x="410" y="750" width="120" height="60" as="geometry" />
        </mxCell>
        <mxCell id="0IoHp8gq_NUmtfsQO4E6-41" value="Id cuidad" style="ellipse;whiteSpace=wrap;html=1;fillColor=#3399FF;rounded=0;" vertex="1" parent="1">
          <mxGeometry x="590" y="840" width="120" height="60" as="geometry" />
        </mxCell>
        <mxCell id="0IoHp8gq_NUmtfsQO4E6-43" value="Barrio&amp;nbsp;&lt;br&gt;" style="ellipse;whiteSpace=wrap;html=1;fillColor=#3399FF;rounded=0;" vertex="1" parent="1">
          <mxGeometry x="410" y="850" width="120" height="60" as="geometry" />
        </mxCell>
        <mxCell id="0IoHp8gq_NUmtfsQO4E6-45" value="Descripcion&lt;br&gt;" style="ellipse;whiteSpace=wrap;html=1;fillColor=#3399FF;rounded=0;" vertex="1" parent="1">
          <mxGeometry x="230" y="830" width="120" height="60" as="geometry" />
        </mxCell>
        <mxCell id="0IoHp8gq_NUmtfsQO4E6-47" value="Idfactura&lt;br&gt;" style="ellipse;whiteSpace=wrap;html=1;fillColor=#007FFF;strokeColor=#0000FF;rounded=0;" vertex="1" parent="1">
          <mxGeometry x="20" y="390" width="120" height="60" as="geometry" />
        </mxCell>
        <mxCell id="0IoHp8gq_NUmtfsQO4E6-49" value="valorVenta&lt;br&gt;" style="ellipse;whiteSpace=wrap;html=1;fillColor=#007FFF;strokeColor=#0000FF;rounded=0;" vertex="1" parent="1">
          <mxGeometry x="20" y="490" width="120" height="60" as="geometry" />
        </mxCell>
        <mxCell id="0IoHp8gq_NUmtfsQO4E6-51" value="&lt;span style=&quot;white-space: pre;&quot;&gt;	&lt;/span&gt;DescuentoDe Venta" style="ellipse;whiteSpace=wrap;html=1;fillColor=#007FFF;strokeColor=#0000FF;rounded=0;" vertex="1" parent="1">
          <mxGeometry x="20" y="570" width="120" height="60" as="geometry" />
        </mxCell>
        <mxCell id="0IoHp8gq_NUmtfsQO4E6-53" value="" style="endArrow=classic;startArrow=none;html=1;rounded=0;entryX=0;entryY=1;entryDx=0;entryDy=0;" edge="1" parent="1" source="0IoHp8gq_NUmtfsQO4E6-1" target="0IoHp8gq_NUmtfsQO4E6-5">
          <mxGeometry width="50" height="50" relative="1" as="geometry">
            <mxPoint x="215" y="440" as="sourcePoint" />
            <mxPoint x="250" y="400" as="targetPoint" />
          </mxGeometry>
        </mxCell>
        <mxCell id="0IoHp8gq_NUmtfsQO4E6-54" value="1:N" style="text;html=1;align=center;verticalAlign=middle;resizable=0;points=[];autosize=1;strokeColor=none;fillColor=none;" vertex="1" parent="1">
          <mxGeometry x="175" y="395" width="40" height="30" as="geometry" />
        </mxCell>
        <mxCell id="0IoHp8gq_NUmtfsQO4E6-55" value="1:1" style="text;html=1;align=center;verticalAlign=middle;resizable=0;points=[];autosize=1;strokeColor=none;fillColor=none;" vertex="1" parent="1">
          <mxGeometry x="175" y="185" width="40" height="30" as="geometry" />
        </mxCell>
        <mxCell id="0IoHp8gq_NUmtfsQO4E6-56" value="cantidadObj&lt;br&gt;" style="ellipse;whiteSpace=wrap;html=1;fillColor=#007FFF;strokeColor=#0000FF;rounded=0;" vertex="1" parent="1">
          <mxGeometry x="315" y="425" width="95" height="50" as="geometry" />
        </mxCell>
        <mxCell id="0IoHp8gq_NUmtfsQO4E6-59" value="" style="endArrow=classic;startArrow=classic;html=1;rounded=0;exitX=0.167;exitY=0;exitDx=0;exitDy=0;exitPerimeter=0;" edge="1" parent="1" source="0IoHp8gq_NUmtfsQO4E6-2">
          <mxGeometry width="50" height="50" relative="1" as="geometry">
            <mxPoint x="250" y="640" as="sourcePoint" />
            <mxPoint x="380" y="560" as="targetPoint" />
          </mxGeometry>
        </mxCell>
        <mxCell id="0IoHp8gq_NUmtfsQO4E6-60" value="1:N" style="text;html=1;align=center;verticalAlign=middle;resizable=0;points=[];autosize=1;strokeColor=none;fillColor=none;rotation=35;" vertex="1" parent="1">
          <mxGeometry x="385" y="560" width="40" height="30" as="geometry" />
        </mxCell>
        <mxCell id="0IoHp8gq_NUmtfsQO4E6-1" value="Ventas" style="rounded=0;whiteSpace=wrap;html=1;fillColor=#007FFF;strokeColor=#0000FF;" vertex="1" parent="1">
          <mxGeometry x="150" y="420" width="120" height="60" as="geometry" />
        </mxCell>
        <mxCell id="0IoHp8gq_NUmtfsQO4E6-61" value="" style="endArrow=none;startArrow=classic;html=1;rounded=0;entryX=1;entryY=1;entryDx=0;entryDy=0;" edge="1" parent="1" target="0IoHp8gq_NUmtfsQO4E6-1">
          <mxGeometry width="50" height="50" relative="1" as="geometry">
            <mxPoint x="330" y="530" as="sourcePoint" />
            <mxPoint x="215" y="200" as="targetPoint" />
          </mxGeometry>
        </mxCell>
        <mxCell id="0IoHp8gq_NUmtfsQO4E6-62" value="&lt;span style=&quot;background-color: rgb(51, 153, 255);&quot;&gt;Compra&lt;/span&gt;" style="rhombus;whiteSpace=wrap;html=1;labelBackgroundColor=#0000FF;strokeColor=#000000;fillColor=#007FFF;" vertex="1" parent="1">
          <mxGeometry x="315" y="500" width="80" height="80" as="geometry" />
        </mxCell>
        <mxCell id="0IoHp8gq_NUmtfsQO4E6-63" value="0:1" style="text;html=1;align=center;verticalAlign=middle;resizable=0;points=[];autosize=1;strokeColor=none;fillColor=none;rotation=42;" vertex="1" parent="1">
          <mxGeometry x="290" y="490" width="40" height="30" as="geometry" />
        </mxCell>
        <mxCell id="0IoHp8gq_NUmtfsQO4E6-64" value="IdCategoria" style="ellipse;whiteSpace=wrap;html=1;fillColor=#007FFF;rounded=0;" vertex="1" parent="1">
          <mxGeometry x="780" y="390" width="90" height="50" as="geometry" />
        </mxCell>
        <mxCell id="0IoHp8gq_NUmtfsQO4E6-66" value="NombreCategoria" style="ellipse;whiteSpace=wrap;html=1;fillColor=#007FFF;rounded=0;" vertex="1" parent="1">
          <mxGeometry x="760" y="465" width="120" height="55" as="geometry" />
        </mxCell>
        <mxCell id="0IoHp8gq_NUmtfsQO4E6-69" value="Descripcion" style="ellipse;whiteSpace=wrap;html=1;fillColor=#007FFF;rounded=0;" vertex="1" parent="1">
          <mxGeometry x="760" y="300" width="120" height="60" as="geometry" />
        </mxCell>
        <mxCell id="0IoHp8gq_NUmtfsQO4E6-73" value="" style="endArrow=classic;startArrow=classic;html=1;rounded=0;exitX=0.889;exitY=1.007;exitDx=0;exitDy=0;exitPerimeter=0;" edge="1" parent="1" source="0IoHp8gq_NUmtfsQO4E6-5">
          <mxGeometry width="50" height="50" relative="1" as="geometry">
            <mxPoint x="360" y="420" as="sourcePoint" />
            <mxPoint x="630" y="386" as="targetPoint" />
            <Array as="points">
              <mxPoint x="295" y="330" />
              <mxPoint x="295" y="380" />
              <mxPoint x="620" y="386" />
            </Array>
          </mxGeometry>
        </mxCell>
        <mxCell id="0IoHp8gq_NUmtfsQO4E6-74" value="1:1" style="text;html=1;align=center;verticalAlign=middle;resizable=0;points=[];autosize=1;strokeColor=none;fillColor=none;rotation=90;" vertex="1" parent="1">
          <mxGeometry x="285" y="215" width="40" height="30" as="geometry" />
        </mxCell>
        <mxCell id="0IoHp8gq_NUmtfsQO4E6-75" value="1:N" style="text;html=1;align=center;verticalAlign=middle;resizable=0;points=[];autosize=1;strokeColor=none;fillColor=none;rotation=0;" vertex="1" parent="1">
          <mxGeometry x="580" y="360" width="40" height="30" as="geometry" />
        </mxCell>
      </root>
    </mxGraphModel>
  </diagram>
</mxfile>
